<svg height="512pt" viewBox="-17 0 512 512" width="512pt" xmlns="http://www.w3.org/2000/svg"><path d="m353.304688 114.757812v379.585938c0 9.75 7.90625 17.65625 17.65625 17.65625s17.652343-7.90625 17.652343-17.65625v-379.496094zm0 0" fill="#805333"/><path d="m406.269531 70.621094v61.792968h-70.621093v-70.621093l1.871093-3.441407c5.8125-22.058593 17.347657-42.1875 33.441407-58.351562 16.113281 16.183594 27.65625 36.347656 33.457031 58.4375zm0 0" fill="#f18d46"/><g fill="#fac176"><path d="m399.058594 63.410156c-29.308594 29.28125-28.097656 78.027344-28.097656 78.027344s48.71875 1.207031 78.027343-28.089844c29.304688-29.300781 28.097657-78.039062 28.097657-78.039062s-48.746094-1.207032-78.027344 28.101562zm0 0"/><path d="m343.066406 63.410156c29.296875 29.296875 28.085938 78.027344 28.085938 78.027344s-48.71875 1.207031-78.023438-28.089844c-29.308594-29.300781-28.101562-78.039062-28.101562-78.039062s48.730468-1.207032 78.039062 28.101562zm0 0"/><path d="m399.058594 178.167969c-29.308594 29.28125-28.097656 78.027343-28.097656 78.027343s48.71875 1.207032 78.027343-28.089843c29.304688-29.300781 28.097657-78.035157 28.097657-78.035157s-48.746094-1.210937-78.027344 28.097657zm0 0"/></g><path d="m343.066406 178.167969c29.296875 29.296875 28.085938 78.027343 28.085938 78.027343s-48.71875 1.207032-78.023438-28.089843c-29.308594-29.300781-28.101562-78.035157-28.101562-78.035157s48.730468-1.210937 78.039062 28.097657zm0 0" fill="#f18d46"/><path d="m399.058594 292.722656c-29.308594 29.308594-28.097656 78.035156-28.097656 78.035156s48.71875 1.210938 78.027343-28.089843c29.304688-29.296875 28.089844-78.027344 28.089844-78.027344s-48.738281-1.214844-78.019531 28.082031zm0 0" fill="#fac176"/><path d="m343.066406 292.722656c29.296875 29.308594 28.085938 78.035156 28.085938 78.035156s-48.71875 1.210938-78.023438-28.089843c-29.308594-29.296875-28.101562-78.035157-28.101562-78.035157s48.730468-1.207031 78.039062 28.089844zm0 0" fill="#f18d46"/><path d="m476.890625 406.070312c.042969 4.710938-1.835937 9.238282-5.207031 12.535157-3.304688 3.292969-7.78125 5.132812-12.449219 5.117187-19.507813.675782-38.1875 8.066406-52.875 20.921875-12.417969 13.46875-18.824219 31.410157-17.746094 49.699219 0 9.75-7.902343 17.65625-17.652343 17.65625s-17.65625-7.90625-17.65625-17.65625c-1.253907-27.683594 8.890624-54.675781 28.070312-74.679688 2.386719-2.296874 4.769531-4.503906 7.238281-6.445312 12.515625-9.863281 26.992188-16.9375 42.460938-20.746094 9.195312-2.453125 18.648437-3.816406 28.160156-4.058594 9.753906 0 17.65625 7.902344 17.65625 17.65625zm0 0" fill="#cb8252"/><path d="m123.789062 114.757812v379.585938c0 9.75-7.90625 17.65625-17.65625 17.65625s-17.65625-7.90625-17.65625-17.65625v-379.496094zm0 0" fill="#805333"/><path d="m70.820312 70.621094v61.792968h70.621094v-70.621093l-1.871094-3.441407c-5.808593-22.058593-17.34375-42.1875-33.4375-58.351562-16.117187 16.183594-27.660156 36.347656-33.457031 58.4375zm0 0" fill="#f18d46"/><path d="m78.035156 63.410156c29.308594 29.28125 28.097656 78.027344 28.097656 78.027344s-48.730468 1.207031-78.035156-28.089844c-29.308594-29.300781-28.0898435-78.039062-28.0898435-78.039062s48.7460935-1.207032 78.0273435 28.101562zm0 0" fill="#fac176"/><path d="m134.027344 63.410156c-29.296875 29.296875-28.089844 78.027344-28.089844 78.027344s48.71875 1.207031 78.027344-28.089844c29.308594-29.300781 28.097656-78.039062 28.097656-78.039062s-48.726562-1.207032-78.035156 28.101562zm0 0" fill="#fac176"/><path d="m78.035156 178.167969c29.308594 29.28125 28.097656 78.027343 28.097656 78.027343s-48.730468 1.207032-78.035156-28.089843c-29.308594-29.300781-28.0898435-78.035157-28.0898435-78.035157s48.7460935-1.210937 78.0273435 28.097657zm0 0" fill="#fac176"/><path d="m134.027344 178.167969c-29.296875 29.296875-28.089844 78.027343-28.089844 78.027343s48.71875 1.207032 78.027344-28.089843c29.308594-29.300781 28.097656-78.035157 28.097656-78.035157s-48.726562-1.210937-78.035156 28.097657zm0 0" fill="#f18d46"/><path d="m78.035156 292.722656c29.308594 29.308594 28.097656 78.035156 28.097656 78.035156s-48.71875 1.210938-78.027343-28.089843c-29.308594-29.296875-28.089844-78.027344-28.089844-78.027344s48.738281-1.214844 78.019531 28.082031zm0 0" fill="#fac176"/><path d="m134.027344 292.722656c-29.296875 29.308594-28.089844 78.035156-28.089844 78.035156s48.71875 1.210938 78.027344-28.089843c29.308594-29.296875 28.097656-78.035157 28.097656-78.035157s-48.726562-1.207031-78.035156 28.089844zm0 0" fill="#f18d46"/><path d="m.203125 406.070312c-.042969 4.710938 1.835937 9.238282 5.207031 12.535157 3.304688 3.292969 7.78125 5.132812 12.445313 5.117187 19.511719.675782 38.1875 8.066406 52.878906 20.921875 12.417969 13.46875 18.824219 31.410157 17.742187 49.699219 0 9.75 7.90625 17.65625 17.65625 17.65625s17.65625-7.90625 17.65625-17.65625c1.253907-27.683594-8.894531-54.675781-28.074218-74.679688-2.382813-2.296874-4.765625-4.503906-7.238282-6.445312-12.511718-9.863281-26.988281-16.9375-42.460937-20.746094-9.195313-2.453125-18.644531-3.816406-28.160156-4.058594-9.75 0-17.652344 7.902344-17.652344 17.65625zm0 0" fill="#cb8252"/></svg>